<?xml version="1.0" encoding="utf-8"?>
<!-- Generator: Adobe Illustrator 16.0.0, SVG Export Plug-In . SVG Version: 6.00 Build 0)  -->
<!DOCTYPE svg PUBLIC "-//W3C//DTD SVG 1.1//EN" "http://www.w3.org/Graphics/SVG/1.1/DTD/svg11.dtd">
<svg version="1.1" id="Layer_1" xmlns="http://www.w3.org/2000/svg" xmlns:xlink="http://www.w3.org/1999/xlink" x="0px" y="0px"
	 width="120px" height="120px" viewBox="0 0 120 120" enable-background="new 0 0 120 120" xml:space="preserve">
<path fill-rule="evenodd" clip-rule="evenodd" fill="#181616" d="M59.809-0.029c-33.15,0-60.033,26.879-60.033,60.041
	c0,26.522,17.201,49.025,41.06,56.965c3.001,0.551,4.098-1.302,4.098-2.895c0-1.424-0.052-5.199-0.082-10.209
	c-16.701,3.627-20.225-8.049-20.225-8.049c-2.729-6.935-6.666-8.782-6.666-8.782c-5.451-3.725,0.413-3.648,0.413-3.648
	c6.026,0.424,9.196,6.186,9.196,6.186c5.355,9.175,14.051,6.526,17.472,4.989c0.546-3.88,2.097-6.526,3.812-8.027
	c-13.331-1.515-27.346-6.665-27.346-29.671c0-6.554,2.338-11.913,6.179-16.11c-0.618-1.518-2.678-7.623,0.588-15.889
	c0,0,5.041-1.614,16.51,6.154c4.789-1.332,9.925-1.998,15.031-2.02c5.1,0.022,10.232,0.688,15.029,2.02
	c11.464-7.769,16.496-6.154,16.496-6.154c3.275,8.266,1.214,14.371,0.598,15.889c3.845,4.197,6.169,9.557,6.169,16.11
	c0,23.064-14.036,28.139-27.411,29.625c2.155,1.853,4.073,5.518,4.073,11.119c0,8.025-0.072,14.499-0.072,16.468
	c0,1.607,1.081,3.476,4.13,2.888c23.838-7.954,41.02-30.442,41.02-56.958C119.848,26.85,92.969-0.029,59.809-0.029z"/>
</svg>
