<?xml version="1.0" encoding="utf-8"?>
<!DOCTYPE svg PUBLIC "-//W3C//DTD SVG 1.1//EN" "http://www.w3.org/Graphics/SVG/1.1/DTD/svg11.dtd">
<svg version="1.1" id="Layer_1" xmlns="http://www.w3.org/2000/svg" xmlns:xlink="http://www.w3.org/1999/xlink" x="0px" y="0px" width="216px" height="216px" viewBox="0 0 216 216" xml:space="preserve"><g><path fill="#007BB6" d="M200.001,0H15.944C7.145,0,0,6.977,0,15.563v184.852C0,209.016,7.145,216,15.944,216h184.057c8.809,0,15.999-6.984,15.999-15.586V15.563C216,6.977,208.81,0,200.001,0z"/><path fill="#FFFFFF" d="M32.01,80.984h32.051v103.078H32.01V80.984z M48.037,29.738c10.242,0,18.566,8.324,18.566,18.57c0,10.258-8.324,18.582-18.566,18.582c-10.27,0-18.57-8.324-18.57-18.582C29.467,38.063,37.768,29.738,48.037,29.738"/><path fill="#FFFFFF" d="M84.154,80.984h30.734v14.078h0.438c4.277-8.102,14.73-16.648,30.316-16.648c32.418,0,38.406,21.344,38.406,49.109v56.539h-32v-50.125c0-11.961-0.234-27.336-16.652-27.336c-16.672,0-19.215,13.023-19.215,26.469v50.992H84.154V80.984z"/></g></svg>
