<?xml version="1.0" encoding="utf-8"?>
<!-- Generator: Adobe Illustrator 16.0.0, SVG Export Plug-In . SVG Version: 6.00 Build 0)  -->
<!DOCTYPE svg PUBLIC "-//W3C//DTD SVG 1.1//EN" "http://www.w3.org/Graphics/SVG/1.1/DTD/svg11.dtd">
<svg version="1.1" id="Layer_1" xmlns="http://www.w3.org/2000/svg" xmlns:xlink="http://www.w3.org/1999/xlink" x="0px" y="0px"
	 width="90.919px" height="115.856px" viewBox="0 0 90.919 115.856" enable-background="new 0 0 90.919 115.856"
	 xml:space="preserve">
<rect x="14.292" y="90.602" fill="#818185" width="45.727" height="9.766"/>
<rect x="59.334" y="18.477" transform="matrix(0.171 0.9853 -0.9853 0.171 91.153 -61.6205)" fill="#F47920" width="45.724" height="9.766"/>
<rect x="15.045" y="75.949" transform="matrix(0.9958 0.0917 -0.0917 0.9958 7.5711 -3.1352)" fill="#A68A6E" width="45.724" height="9.767"/>
<rect x="17.916" y="59.222" transform="matrix(0.9657 0.2596 -0.2596 0.9657 18.039 -8.3883)" fill="#BF9452" width="45.726" height="9.766"/>
<rect x="24.852" y="41.862" transform="matrix(0.8613 0.508 -0.508 0.8613 30.3638 -17.7595)" fill="#D28B29" width="45.728" height="9.765"/>
<rect x="39.768" y="26.29" transform="matrix(0.5634 0.8262 -0.8262 0.5634 53.0963 -38.1338)" fill="#F68A1F" width="45.726" height="9.767"/>
<path fill="#818185" d="M67.786,68.232v39.925H7.811V68.232H0v47.587h0.078c0,0.037,2.28,0.037,2.28,0.037H75.52v-0.037
	c0.077,0,0.077-2.281,0.077-2.281V68.232H67.786z"/>
</svg>
