<?xml version="1.0" encoding="utf-8"?>
<!-- Generator: Adobe Illustrator 16.0.0, SVG Export Plug-In . SVG Version: 6.00 Build 0)  -->
<!DOCTYPE svg PUBLIC "-//W3C//DTD SVG 1.1//EN" "http://www.w3.org/Graphics/SVG/1.1/DTD/svg11.dtd">
<svg version="1.1"
	 id="svg2" sodipodi:docname="AJAX.svg" inkscape:version="0.48.2 r9819" xmlns:svg="http://www.w3.org/2000/svg" xmlns:sodipodi="http://sodipodi.sourceforge.net/DTD/sodipodi-0.dtd" xmlns:cc="http://creativecommons.org/ns#" xmlns:rdf="http://www.w3.org/1999/02/22-rdf-syntax-ns#" xmlns:dc="http://purl.org/dc/elements/1.1/" xmlns:inkscape="http://www.inkscape.org/namespaces/inkscape"
	 xmlns="http://www.w3.org/2000/svg" xmlns:xlink="http://www.w3.org/1999/xlink" x="0px" y="0px" width="114.982px"
	 height="79.729px" viewBox="0 0 114.982 79.729" enable-background="new 0 0 114.982 79.729" xml:space="preserve">
<sodipodi:namedview  id="namedview16" inkscape:current-layer="svg2" inkscape:window-maximized="1" inkscape:window-y="-8" inkscape:window-x="-8" fit-margin-bottom="0" fit-margin-right="0" inkscape:pageopacity="0" inkscape:window-height="1004" inkscape:window-width="1280" inkscape:pageshadow="2" fit-margin-left="0" pagecolor="#ffffff" inkscape:cx="321.2857" inkscape:zoom="2.6833333" showgrid="false" inkscape:cy="-10.363333" guidetolerance="10" fit-margin-top="0" borderopacity="1" bordercolor="#666666" objecttolerance="10" gridtolerance="10">
	</sodipodi:namedview>
<linearGradient id="bird_1_" gradientUnits="userSpaceOnUse" x1="2472.6917" y1="1282.8967" x2="2472.6917" y2="1264.3044" gradientTransform="matrix(4.262 0 0 -4.262 -10481.1221 5468.2363)">
	<stop  offset="0" style="stop-color:#33CCFF"/>
	<stop  offset="1" style="stop-color:#06C1FF"/>
</linearGradient>
<path id="bird" inkscape:connector-curvature="0" fill="url(#bird_1_)" d="M0,57.591c7.483,6.921,26.7,13.47,42.338-1.857
	c-2.813,0.438-5.16-0.094-6.942-1.856c-1.69-1.675-1.783-3.408-0.879-4.986c0.735-1.283,2.286-2.188,3.813-3.129
	c-2.768,0.515-5.128,0.247-7.234-0.831c-2.832-1.447-5.584-2.971-6.354-6.11c1.729-1.82,3.656-3.447,7.822-2.836
	c-3.92-1.309-7.432-3.016-9.975-5.571c-2.478-2.49-2.73-4.109-3.129-6.063c2.163-0.801,4.421-1.217,6.845-0.978
	c-5.479-2.803-7.806-6.654-9.094-10.854c-0.389-1.27-0.459-2.477-0.294-3.716c22.193,8.379,32.589,14.397,38.327,20.044
	c2.581-6.869,8.603-22.428,17.602-27.769c0.043,0.848-0.294,1.761-0.979,2.736c2.664-1.482,4.744-3.858,8.408-3.813
	c-0.422,1.731-1.635,3.122-4.008,4.009c2.394-0.917,4.817-1.694,7.333-2.15c2.33-0.422,2.296,1.416,0.978,2.348
	c-2.676,1.89-5.521,2.123-8.311,3.029c8.557,0.215,15.556,4.268,21.021,13.104c1.816,2.937,3.035,5.873,3.324,9.093
	c3.65,1.024,7.282,1.233,10.951,0.586c1.005-0.179,1.938-0.366,2.835-0.78c-1.426,2.141-3.073,3.896-5.377,4.692
	c-2.203,0.761-4.41,1.502-6.846,1.564c3.963,1.499,8.328,1.582,12.81,1.271c-5.48,5.274-9.675,5.147-13.885,5.085
	c-1.848,7.794-5.619,15.566-13.591,22.686c-10.457,9.336-21.714,13.789-33.342,14.764c-10.902,0.915-21.444,0.789-32.95-4.596
	C12.687,70.71,5.535,65.216,0,57.591L0,57.591z"/>
</svg>
